<svg width="1440" height="1024" viewBox="0 0 1440 1024" fill="none" xmlns="http://www.w3.org/2000/svg">
<path d="M1307.85 159.385C1253.38 120.664 1236.78 41.4699 1279.58 -10.7287C1324.59 -65.6157 1381.43 -50.4351 1430.73 -0.236685C1456.15 25.6503 1497.82 44.7144 1497.24 81.289C1495.96 161.604 1372.72 205.491 1307.85 159.385Z" fill="#201E3D"/>
<path d="M1473.31 674.909C1435.49 674.156 1372.02 646.056 1340.97 586.39C1284.28 512.063 1303.2 472.658 1370.38 460.036C1415.39 451.579 1459.48 460.687 1507.42 496.218C1571.31 543.575 1565.53 588.505 1552.55 618.067C1534.84 658.414 1502.34 675.486 1473.31 674.909Z" fill="#FFD882"/>
<path d="M-112.584 -57.5644C-64.6251 -83.1954 34.7681 -93.2335 115.767 -41.7337C239.267 9.76619 243.323 71.4593 167.978 134.133C117.498 176.124 55.7883 195.891 -29.3689 185.896C-142.869 172.575 -167.3 113.322 -171.869 67.896C-178.105 5.89585 -149.389 -37.8945 -112.584 -57.5644Z" fill="#FFD882"/>
<path d="M1163.96 918.866C1249.3 815.204 1409.16 792.883 1506.19 885.699C1608.22 983.296 1569.25 1094.92 1461.92 1186.65C1406.56 1233.95 1362.24 1314.69 1289.7 1308.5C1130.39 1294.9 1062.34 1042.3 1163.96 918.866Z" fill="#FFD882"/>
<path d="M129.784 681.241C193.425 700.968 172.869 798.488 217.908 850.381C275.231 916.427 385.085 891.639 392.846 982.226C404.452 1117.7 230.101 1166.59 104.997 1147.8C-3.74165 1131.47 -90.8818 1073.48 -111.54 957.521C-128.945 859.825 -101.517 775.222 -24.5177 718.293C26.5842 680.511 70.9149 662.993 129.784 681.241Z" fill="#201E3D"/>
</svg>
