<svg width="144" height="161" viewBox="0 0 144 161" fill="none" xmlns="http://www.w3.org/2000/svg">
<path fill-rule="evenodd" clip-rule="evenodd" d="M139.938 22.7185C120.896 54.1799 53.1004 126.876 21.6431 159.237C21.1564 159.738 20.138 159.575 19.3684 158.872C18.5989 158.17 18.3696 157.195 18.8563 156.694C50.3674 124.277 117.998 51.7367 136.916 20.4805C137.578 19.3858 138.083 18.4625 138.445 17.6988C137.648 18.1089 136.68 18.6804 135.544 19.4194C133.427 20.7955 130.826 22.6846 127.819 25.0066C115.789 34.2985 97.4728 50.3678 78.2837 67.6733C63.6911 80.8334 48.6093 94.6943 35.4251 106.811C31.2776 110.623 27.3179 114.262 23.6203 117.652C15.8966 124.735 9.31377 130.734 4.5552 134.951C2.17713 137.059 0.246858 138.728 -1.14556 139.867C-1.83972 140.435 -2.41338 140.881 -2.84826 141.187C-3.06318 141.338 -3.26444 141.468 -3.44142 141.564C-3.52831 141.61 -3.63376 141.662 -3.74949 141.703L-3.75411 141.704C-3.82495 141.729 -4.08561 141.821 -4.45887 141.777C-4.66007 141.754 -4.99236 141.68 -5.37822 141.446C-5.79902 141.191 -6.11884 140.845 -6.32129 140.507C-6.64269 139.972 -6.61964 139.55 -6.61438 139.454L-6.61416 139.45C-6.59913 139.171 -6.5032 138.926 -6.44158 138.781C-6.29484 138.434 -6.03776 137.978 -5.70768 137.444C-5.03691 136.361 -3.96415 134.801 -2.55782 132.844C0.259332 128.923 4.46047 123.341 9.57916 116.641C15.2881 109.169 22.1491 100.29 29.5183 90.7547C35.3626 83.1922 41.5264 75.2161 47.6886 67.1997C61.6268 49.0674 75.563 30.7202 85.813 16.4345C90.9396 9.28939 95.1337 3.17456 97.9433 -1.38337C98.8587 -2.86843 99.6209 -4.17831 100.218 -5.29796C99.7299 -4.92147 99.1999 -4.4993 98.6298 -4.03246C95.1202 -1.15876 90.2243 3.293 84.3883 8.83199C72.7221 19.9046 57.3581 35.2658 41.9366 50.8952C31.0662 61.9121 20.1722 73.0573 10.5289 82.9229C6.49236 87.0525 2.67495 90.9579 -0.829863 94.5359C-6.76741 100.597 -11.8091 105.72 -15.4966 109.399C-17.3399 111.238 -18.849 112.72 -19.9642 113.779C-20.5212 114.308 -20.9853 114.737 -21.3465 115.054C-21.6766 115.343 -21.9949 115.607 -22.2309 115.736L-22.2336 115.737C-22.2896 115.767 -22.4874 115.875 -22.7877 115.892C-22.9423 115.9 -23.3233 115.898 -23.8148 115.642C-24.4091 115.333 -24.8006 114.85 -24.9943 114.453C-25.1545 114.125 -25.1783 113.871 -25.1842 113.764C-25.1912 113.636 -25.1798 113.535 -25.1701 113.472C-25.1508 113.347 -25.1165 113.24 -25.0905 113.168C-24.9907 112.889 -24.787 112.511 -24.5392 112.088C-24.0221 111.205 -23.1517 109.862 -21.9909 108.137C-19.6642 104.679 -16.1256 99.6191 -11.7932 93.4883C-8.38239 88.6615 -4.47924 83.1702 -0.283597 77.2674C6.18739 68.1635 13.3542 58.0806 20.4836 47.9472C32.2339 31.2459 43.8641 14.4334 52.0731 1.69396C56.1804 -4.68011 59.4166 -10.0122 61.3829 -13.7929C61.8336 -14.6593 62.2115 -15.4331 62.5159 -16.1111C61.6872 -15.5324 60.7222 -14.7869 59.631 -13.885C56.495 -11.293 52.412 -7.48891 47.696 -2.86986C38.2681 6.36428 26.3729 18.7934 14.5798 31.1491C13.896 31.8656 13.2125 32.5819 12.5298 33.2972C1.44649 44.9111 -9.41358 56.2912 -17.8821 64.682C-22.3745 69.1332 -26.2119 72.7613 -29.0611 75.1403C-30.4789 76.3242 -31.6878 77.2293 -32.6304 77.7699C-33.0892 78.0331 -33.5603 78.2551 -34.0144 78.3524C-34.2348 78.3996 -34.5626 78.4435 -34.9623 78.3704C-35.4059 78.2894 -36.0557 78.0326 -36.6109 77.4149C-37.2334 76.7223 -37.3663 76.0212 -37.4051 75.6508C-37.4503 75.2197 -37.4111 74.7787 -37.3376 74.3573C-37.1888 73.5045 -36.8495 72.4663 -36.3778 71.2978C-35.4286 68.9465 -33.8614 65.8712 -31.8893 62.3455C-27.9397 55.2848 -22.3026 46.3065 -16.5499 37.4843C-10.7948 28.6585 -4.91475 19.9744 -0.474078 13.4977C1.74643 10.2592 3.60742 7.57192 4.91341 5.69416C5.56641 4.75526 6.08068 4.01871 6.43178 3.51676L6.9706 2.74777C6.97099 2.74723 6.97119 2.74694 8.45017 3.91514C9.92916 5.08335 9.92899 5.08358 9.92865 5.08408L9.39205 5.84989C9.04175 6.35068 8.52835 7.08598 7.87628 8.02354C6.57212 9.89867 4.71332 12.5827 2.49528 15.8177C-1.94116 22.2883 -7.81322 30.9605 -13.5584 39.7713C-19.306 48.5857 -24.9172 57.5243 -28.8371 64.532C-30.7996 68.0405 -32.3225 71.0372 -33.2277 73.2797C-33.309 73.4812 -33.3847 73.675 -33.4549 73.8612C-32.9376 73.4732 -32.3579 73.0112 -31.7177 72.4767C-28.928 70.1473 -25.1337 66.5624 -20.6465 62.1163C-12.1958 53.7432 -1.35149 42.3797 9.7392 30.7581C10.4195 30.0452 11.1007 29.3314 11.7823 28.6173C23.5701 16.267 35.4862 3.8157 44.9387 -5.44242C49.6629 -10.0695 53.7874 -13.9145 56.981 -16.5542C58.5747 -17.8714 59.9604 -18.9086 61.088 -19.5943C61.6495 -19.9358 62.1778 -20.2093 62.6592 -20.3841C63.0732 -20.5345 63.69 -20.7079 64.4041 -20.5511C64.9531 -20.4306 65.641 -20.0769 66.1562 -19.4028C66.5748 -18.8554 66.6795 -18.3472 66.7138 -18.0691C66.7846 -17.4943 66.6639 -16.887 66.5054 -16.3335C66.1704 -15.1627 65.4574 -13.5702 64.4606 -11.6536C62.4546 -7.79665 59.1815 -2.40819 55.0696 3.97312C46.84 16.7445 35.1921 33.5819 23.4412 50.2841C16.3117 60.4177 9.13734 70.5112 2.66306 79.6198C-1.53196 85.5217 -5.43308 91.0102 -8.83766 95.8281C-10.141 97.6724 -11.3714 99.4184 -12.518 101.052C-9.87281 98.3724 -6.87901 95.3233 -3.61208 91.9882C-0.109649 88.4126 3.70627 84.5087 7.74187 80.3801C17.3862 70.5134 28.2853 59.3631 39.1587 48.3431C54.5812 32.7127 69.9621 17.3342 81.6502 6.24087C87.4914 0.696873 92.425 -3.79094 95.9859 -6.70667C97.759 -8.15852 99.2264 -9.24947 100.312 -9.88426C100.834 -10.1896 101.362 -10.4472 101.85 -10.5477C102.064 -10.5916 102.495 -10.6585 103.043 -10.4832C103.359 -10.3821 103.749 -10.1881 104.121 -9.84821C104.49 -9.51075 104.709 -9.1506 104.83 -8.86248C105.024 -8.40299 105.041 -8.00126 105.032 -7.73745C105.021 -7.44602 104.969 -7.15169 104.897 -6.86596C104.753 -6.29314 104.495 -5.62242 104.153 -4.87583C103.467 -3.3758 102.377 -1.43523 100.958 0.866614C98.1162 5.47716 93.8938 11.6311 88.7614 18.7843C78.4935 33.095 64.542 51.462 50.6037 69.5945C44.4345 77.62 38.2691 85.598 32.4252 93.16C25.06 102.691 18.2054 111.56 12.4973 119.032C9.10624 123.471 6.12364 127.411 3.68208 130.699C8.23119 126.633 14.1238 121.258 20.9037 115.041C24.5987 111.653 28.5565 108.016 32.7028 104.205C45.8879 92.0875 60.9783 78.2187 75.5775 65.0526C94.7616 47.7517 113.124 31.6397 125.214 22.3016C128.238 19.9662 130.882 18.0447 133.056 16.6311C135.192 15.2419 136.979 14.272 138.269 13.937C138.601 13.8507 138.968 13.7877 139.349 13.7956C139.699 13.8028 140.292 13.8734 140.942 14.2868C141.708 14.7733 142.118 15.4465 142.29 15.9733C142.443 16.4409 142.44 16.8642 142.406 17.1911C142.336 17.8619 142.069 18.6456 141.672 19.5189C141.266 20.4127 140.689 21.4772 139.938 22.7185ZM-34.1163 76.5904C-34.1168 76.5908 -34.119 76.5818 -34.1214 76.5622C-34.117 76.5802 -34.1158 76.59 -34.1163 76.5904ZM8.45017 3.91514L9.92865 5.08408C10.331 4.51175 9.99549 3.52402 9.17866 2.87884C8.36185 2.23366 7.37295 2.17544 6.9706 2.74777L8.45017 3.91514ZM103.633 -7.4771C103.664 -7.48348 103.663 -7.47968 103.632 -7.4768C103.632 -7.4769 103.633 -7.477 103.633 -7.4771ZM140.533 16.9181C140.546 16.9184 140.544 16.9193 140.529 16.9181C140.53 16.9181 140.531 16.9181 140.533 16.9181Z" fill="black"/>
<path d="M6.97061 2.74777C6.97099 2.74722 6.97119 2.74694 8.45017 3.91514M6.97061 2.74777C7.37295 2.17544 8.36185 2.23366 9.17867 2.87884C9.99549 3.52402 10.331 4.51175 9.92864 5.08408M6.97061 2.74777L8.45017 3.91514M6.97061 2.74777L6.43178 3.51676C6.08068 4.01871 5.56641 4.75526 4.91341 5.69416C3.60742 7.57192 1.74643 10.2592 -0.474076 13.4977C-4.91474 19.9744 -10.7949 28.6585 -16.5499 37.4843C-22.3026 46.3066 -27.9397 55.2848 -31.8893 62.3455C-33.8614 65.8712 -35.4286 68.9465 -36.3778 71.2978C-36.8495 72.4663 -37.1888 73.5045 -37.3376 74.3573C-37.4111 74.7787 -37.4503 75.2197 -37.4051 75.6508C-37.3663 76.0212 -37.2334 76.7223 -36.6109 77.4149C-36.0557 78.0326 -35.4059 78.2894 -34.9623 78.3704C-34.5626 78.4435 -34.2348 78.3996 -34.0144 78.3524C-33.5603 78.2551 -33.0892 78.0331 -32.6304 77.7699C-31.6878 77.2293 -30.4789 76.3242 -29.0611 75.1403C-26.2119 72.7613 -22.3745 69.1332 -17.8821 64.682C-9.41359 56.2912 1.44649 44.9111 12.5298 33.2972C13.2125 32.5819 13.896 31.8656 14.5798 31.1491C26.3729 18.7934 38.2681 6.36428 47.696 -2.86986C52.412 -7.48891 56.495 -11.293 59.631 -13.885C60.7222 -14.7869 61.6872 -15.5324 62.5159 -16.1111C62.2115 -15.4331 61.8336 -14.6593 61.3829 -13.7929C59.4166 -10.0122 56.1804 -4.68011 52.0731 1.69396C43.8641 14.4334 32.2339 31.2459 20.4836 47.9472C13.3542 58.0806 6.18739 68.1635 -0.2836 77.2674C-4.47924 83.1702 -8.38239 88.6615 -11.7932 93.4883C-16.1256 99.6191 -19.6642 104.679 -21.9909 108.137C-23.1517 109.862 -24.0221 111.205 -24.5392 112.088C-24.787 112.511 -24.9907 112.889 -25.0905 113.168C-25.1165 113.24 -25.1508 113.347 -25.1701 113.472C-25.1798 113.535 -25.1912 113.636 -25.1842 113.764C-25.1783 113.871 -25.1545 114.125 -24.9943 114.453C-24.8006 114.85 -24.4091 115.333 -23.8149 115.642C-23.3233 115.898 -22.9423 115.9 -22.7877 115.892C-22.4874 115.875 -22.2896 115.767 -22.2336 115.737L-22.2309 115.736C-21.9949 115.607 -21.6766 115.343 -21.3465 115.054C-20.9853 114.737 -20.5212 114.308 -19.9642 113.779C-18.849 112.72 -17.3399 111.238 -15.4966 109.399C-11.809 105.72 -6.76741 100.597 -0.829862 94.5359C2.67494 90.9579 6.49236 87.0525 10.5289 82.9229C20.1722 73.0573 31.0662 61.9121 41.9366 50.8952C57.3581 35.2658 72.7221 19.9046 84.3883 8.83199C90.2243 3.293 95.1202 -1.15876 98.6298 -4.03245C99.1999 -4.4993 99.7299 -4.92147 100.218 -5.29796C99.6209 -4.17831 98.8587 -2.86844 97.9433 -1.38337C95.1337 3.17456 90.9396 9.28939 85.813 16.4345C75.563 30.7201 61.6268 49.0674 47.6886 67.1997C41.5264 75.2161 35.3626 83.1922 29.5183 90.7547C22.1491 100.29 15.2881 109.169 9.57917 116.641C4.46047 123.341 0.259333 128.923 -2.55782 132.844C-3.96415 134.801 -5.03692 136.361 -5.70768 137.444C-6.03776 137.978 -6.29484 138.434 -6.44159 138.781C-6.5032 138.926 -6.59914 139.171 -6.61417 139.45L-6.61438 139.454C-6.61964 139.55 -6.64269 139.972 -6.3213 140.507C-6.11883 140.844 -5.79902 141.191 -5.37822 141.446C-4.99236 141.68 -4.66007 141.754 -4.45887 141.777C-4.08561 141.821 -3.82495 141.729 -3.75412 141.704L-3.7495 141.703C-3.63376 141.662 -3.52831 141.61 -3.44142 141.564C-3.26444 141.468 -3.06318 141.338 -2.84825 141.187C-2.41338 140.881 -1.83973 140.435 -1.14556 139.867C0.246859 138.728 2.17714 137.059 4.5552 134.951C9.31376 130.734 15.8966 124.735 23.6204 117.652C27.318 114.262 31.2776 110.623 35.4251 106.811C48.6093 94.6943 63.6911 80.8334 78.2837 67.6733C97.4728 50.3678 115.789 34.2985 127.819 25.0066C130.826 22.6846 133.427 20.7955 135.544 19.4194C136.68 18.6804 137.648 18.1089 138.445 17.6988C138.083 18.4625 137.578 19.3858 136.916 20.4805C117.998 51.7367 50.3674 124.277 18.8563 156.694C18.3696 157.195 18.5989 158.17 19.3684 158.872C20.138 159.575 21.1564 159.738 21.6431 159.237C53.1004 126.876 120.896 54.1799 139.938 22.7185C140.689 21.4772 141.266 20.4127 141.672 19.5189C142.069 18.6456 142.336 17.8619 142.406 17.1911C142.44 16.8642 142.443 16.4409 142.29 15.9733C142.118 15.4465 141.708 14.7733 140.942 14.2868C140.292 13.8734 139.699 13.8028 139.349 13.7956C138.968 13.7877 138.601 13.8507 138.269 13.937C136.979 14.272 135.192 15.2419 133.056 16.6311C130.882 18.0447 128.238 19.9662 125.214 22.3016C113.124 31.6397 94.7616 47.7517 75.5775 65.0526C60.9783 78.2187 45.8879 92.0875 32.7028 104.205C28.5565 108.016 24.5987 111.653 20.9037 115.041C14.1238 121.258 8.2312 126.633 3.68208 130.699C6.12364 127.411 9.10624 123.471 12.4973 119.032C18.2054 111.56 25.06 102.691 32.4252 93.16C38.2691 85.598 44.4345 77.62 50.6037 69.5945C64.542 51.462 78.4935 33.095 88.7614 18.7843C93.8938 11.6311 98.1162 5.47716 100.958 0.866615C102.377 -1.43523 103.467 -3.37579 104.153 -4.87583C104.495 -5.62242 104.753 -6.29314 104.897 -6.86596C104.969 -7.1517 105.021 -7.44602 105.032 -7.73745C105.041 -8.00126 105.024 -8.40298 104.83 -8.86249C104.709 -9.1506 104.49 -9.51075 104.121 -9.84821C103.749 -10.1881 103.359 -10.3821 103.043 -10.4832C102.495 -10.6585 102.064 -10.5916 101.85 -10.5477C101.362 -10.4472 100.834 -10.1896 100.312 -9.88426C99.2264 -9.24948 97.759 -8.15852 95.9859 -6.70667C92.425 -3.79094 87.4915 0.696873 81.6502 6.24087C69.9621 17.3342 54.5812 32.7127 39.1587 48.3431C28.2853 59.3631 17.3862 70.5134 7.74187 80.3801C3.70627 84.5088 -0.109648 88.4126 -3.61209 91.9882C-6.87901 95.3233 -9.8728 98.3724 -12.518 101.052C-11.3714 99.4184 -10.1409 97.6724 -8.83766 95.8281C-5.43308 91.0102 -1.53196 85.5217 2.66306 79.6198C9.13735 70.5112 16.3117 60.4177 23.4412 50.2841C35.1921 33.5819 46.84 16.7445 55.0696 3.97312C59.1815 -2.40819 62.4546 -7.79665 64.4606 -11.6536C65.4574 -13.5702 66.1704 -15.1627 66.5054 -16.3335C66.6639 -16.887 66.7846 -17.4943 66.7138 -18.0691C66.6795 -18.3472 66.5748 -18.8554 66.1562 -19.4028C65.641 -20.0769 64.9531 -20.4306 64.4041 -20.5511C63.69 -20.7079 63.0732 -20.5345 62.6592 -20.3841C62.1778 -20.2093 61.6495 -19.9358 61.088 -19.5943C59.9605 -18.9086 58.5747 -17.8714 56.981 -16.5542C53.7874 -13.9145 49.6629 -10.0695 44.9387 -5.44242C35.4862 3.8157 23.5701 16.267 11.7823 28.6173C11.1007 29.3314 10.4195 30.0452 9.7392 30.7581C-1.35149 42.3797 -12.1958 53.7432 -20.6465 62.1164C-25.1337 66.5624 -28.928 70.1473 -31.7177 72.4767C-32.3579 73.0112 -32.9376 73.4732 -33.4549 73.8612C-33.3847 73.675 -33.309 73.4812 -33.2277 73.2797C-32.3225 71.0372 -30.7996 68.0405 -28.8371 64.532C-24.9172 57.5243 -19.306 48.5857 -13.5584 39.7713C-7.81323 30.9605 -1.94116 22.2882 2.49528 15.8177C4.71332 12.5827 6.57212 9.89867 7.87628 8.02354C8.52835 7.08598 9.04175 6.35068 9.39204 5.84989L9.92864 5.08408M8.45017 3.91514C9.92916 5.08335 9.92899 5.08358 9.92864 5.08408M8.45017 3.91514L9.92864 5.08408M101.736 -9.03385C101.735 -9.04298 101.735 -9.04778 101.736 -9.04792M-34.1163 76.5904C-34.1168 76.5908 -34.119 76.5818 -34.1214 76.5622C-34.117 76.5802 -34.1158 76.59 -34.1163 76.5904ZM103.633 -7.4771C103.664 -7.48348 103.663 -7.47968 103.632 -7.4768C103.632 -7.4769 103.633 -7.477 103.633 -7.4771ZM140.533 16.9181C140.546 16.9184 140.544 16.9193 140.529 16.9181C140.53 16.9181 140.531 16.9181 140.533 16.9181Z" stroke="black" stroke-width="2" stroke-linecap="round"/>
</svg>
